- 
http://www.Speed.Cd 
       
http://www.Speed.Cd       the fast  and The Hottest Private Tracker on the net

(((--Registration will be open on june every weekend--)))

Please Seed back to make the speed Faster!!!

------------------nfo--------------------------
-
[IMG]http://www.gugglet.com/wp-content/uploads/2011/03/Mars-Needs-Moms-2011.jpg[/IMG]

TiTLE.........: Mars.Needs.Moms.2011.R5.XviD.AC3-mtyy
RUNTiME.......: 1h 24mn
FORMAT........: XviD
RAR COUNT.....: 101x15MB
SOURCE .......: R5 DVD9
GENRE.........: Animation | Action | Adventure 
AUDIO.........: English 
SUBTITLES.....: None
SAMPEL........: YES
RELEASE DATE..: 11-06-2011

IMDB : http://www.imdb.com/title/tt1305591/

Plot :
A young boy named Milo gains a deeper appreciation for his 
mom after Martians come to Earth to take her away.  


General

Complete name                    : Mars.Needs.Moms.2011.R5.XviD.AC3-mtyy
Format                           : AVI
Format/Info                      : Audio Video Interleave
Format profile                   : OpenDML
File size                        : 1.40 GiB
Duration                         : 1h 24mn
Overall bit rate                 : 2 372 Kbps
Writing application              : MEncoder version 4.0.0 building on 20100917


Video

Format                           : MPEG-4 Visual
Format profile                   : Simple@L1
Format settings, BVOP            : No
Format settings, QPel            : No
Format settings, GMC             : No warppoints
Format settings, Matrix          : Default (H.263)
Codec ID                         : DX50
Codec ID/Hint                    : DivX 5
Duration                         : 1h 24mn
Bit rate                         : 1 982 Kbps
Width                            : 720 pixels
Height                           : 404 pixels
Display aspect ratio             : 16:9
Frame rate                       : 25.000 fps
Color space                      : YUV
Chroma subsampling               : 4:2:0
Bit depth                        : 8 bits
Scan type                        : Progressive
Compression mode                 : Lossy
Bits/(Pixel*Frame)               : 0.273
Stream size                      : 1.17 GiB (84%)
Writing library                  : DigiArty AV Encoder Core

Audio

Format                           : AC-3
Format/Info                      : Audio Coding 3
Mode extension                   : CM (complete main)
Codec ID                         : 2000
Duration                         : 1h 24mn
Bit rate mode                    : Constant
Bit rate                         : 384 Kbps
Channel(s)                       : 6 channels
Channel positions                : Front: L C R, Side: L R, LFE
Sampling rate                    : 48.0 KHz
Bit depth                        : 16 bits
Compression mode                 : Lossy
Stream size                      : 232 MiB (16%)
Alignment                        : Split accross interleaves
Interleave, duration             : 500 ms (12.50 video frames)
Interleave, preload duration     : 500 ms

GREETS:

Greets
Thanks to tinners twisted ,bigguy,CTFX, PA4U2C, HiTM4N,smelise.paranoid53
fifer,DiLLoN,imagine,"the squad" ,floridajoe,apollo *THC* ELEKTRI4KA ,KART3LDVD, TDP
And to all the other p2p grps past and present

[center][img]http://shareimage.ro/images/8lm5epidel2fpjrflz.png[/img][/center]